<?xml version="1.0" encoding="iso-8859-1"?>
2
<!-- Generator: Adobe Illustrator 19.0.0, SVG Export Plug-In . SVG Version: 6.00 Build 0)  -->
3
<svg version="1.1" id="Layer_1" xmlns="http://www.w3.org/2000/svg" xmlns:xlink="http://www.w3.org/1999/xlink" x="0px" y="0px"
4
	 viewBox="0 0 512 512" style="enable-background:new 0 0 512 512;" xml:space="preserve">
5
<g>
6
	<g>
7
		<g>
8
			<path d="M256,0C114.833,0,0,114.844,0,256s114.833,256,256,256s256-114.844,256-256S397.167,0,256,0z M256,490.667
9
				C126.604,490.667,21.333,385.396,21.333,256S126.604,21.333,256,21.333S490.667,126.604,490.667,256S385.396,490.667,256,490.667
10
				z"/>
11
			<path d="M357.771,247.031l-149.333-96c-3.271-2.135-7.5-2.25-10.875-0.396C194.125,152.51,192,156.094,192,160v192
12
				c0,3.906,2.125,7.49,5.563,9.365c1.583,0.865,3.354,1.302,5.104,1.302c2,0,4.021-0.563,5.771-1.698l149.333-96
13
				c3.042-1.958,4.896-5.344,4.896-8.969S360.813,248.99,357.771,247.031z M213.333,332.458V179.542L332.271,256L213.333,332.458z"
14
				/>
15
		</g>
16
	</g>
17
</g>
18
<g>
19
</g>
20
<g>
21
</g>
22
<g>
23
</g>
24
<g>
25
</g>
26
<g>
27
</g>
28
<g>
29
</g>
30
<g>
31
</g>
32
<g>
33
</g>
34
<g>
35
</g>
36
<g>
37
</g>
38
<g>
39
</g>
40
<g>
41
</g>
42
<g>
43
</g>
44
<g>
45
</g>
46
<g>
47
</g>
48
</svg>